{"title":"Stolichani v poveche - Season 4 - Episode 8.mp4","uid":7802943,"size":352602787,"categoryP":"video","categoryS":"tv_shows","magnet":"?xt=urn:btih:42dac90fbb2b4b37fb6be84bee37182a7b544aad&amp;dn=Stolichani+v+poveche+-+Season+4+-+Episode+8.mp4&amp;tr=udp%3A%2F%2Ftracker.openbittorrent.com%3A80&amp;tr=udp%3A%2F%2Fopen.demonii.com%3A1337&amp;tr=udp%3A%2F%2Ftracker.coppersurfer.tk%3A6969&amp;tr=udp%3A%2F%2Fexodus.desync.com%3A6969","seeders":0,"leechers":0,"uploader":"AlexaSD9","files":1,"time":1352327237,"description":"Input #0, mov,mp4,m4a,3gp,3g2,mj2, from 'Stolichani v poveche - Season 4 - Episode 8.mp4':  Metadata:\n    major_brand     : mp42\n    minor_version   : 0\n    compatible_brands: mp42isomavc1    creation_time   : 2012-11-07 21:15:41\n    encoder         : HandBrake 5044svn 2012110601\n  Duration: 00:46:42.98, start: 0.000000, bitrate: 1006 kb/s\n    Stream #0:0(und): Video: h264 (Main) (avc1 / 0x31637661), yuv420p, 720x576 [SAR 16:11 DAR 20:11], 856 kb/s, 24.99 \nfps, 25 tbr, 90k tbn, 180k tbc\n    Metadata:\n      creation_time   : 2012-11-07 21:15:41\n    Stream #0:1(und): Audio: aac (mp4a / 0x6134706D), 48000 Hz, stereo, s16, 144 kb/s\n    Metadata:\n      creation_time   : 2012-11-07 21:15:41","torrent":{"xt":"urn:btih:42dac90fbb2b4b37fb6be84bee37182a7b544aad","amp;dn":"Stolichani+v+poveche+-+Season+4+-+Episode+8.mp4","amp;tr":["udp%3A%2F%2Ftracker.openbittorrent.com%3A80","udp%3A%2F%2Fopen.demonii.com%3A1337","udp%3A%2F%2Ftracker.coppersurfer.tk%3A6969","udp%3A%2F%2Fexodus.desync.com%3A6969"],"infoHash":"42dac90fbb2b4b37fb6be84bee37182a7b544aad","infoHashBuffer":{"type":"Buffer","data":[66,218,201,15,187,43,75,55,251,107,232,75,238,55,24,42,123,84,74,173]},"announce":[],"urlList":[]}}